<svg width="279" height="40" viewBox="0 0 279 40" fill="none" xmlns="http://www.w3.org/2000/svg">
<path d="M111.834 14.8644V0.436813H116.709C117.836 0.436813 118.761 0.629369 119.485 1.01448C120.208 1.3949 120.743 1.91855 121.091 2.58546C121.438 3.25236 121.612 4.01084 121.612 4.8609C121.612 5.71097 121.438 6.46475 121.091 7.12226C120.743 7.77977 120.21 8.29638 119.492 8.6721C118.773 9.04312 117.855 9.22864 116.737 9.22864H112.792V7.65062H116.681C117.451 7.65062 118.071 7.5379 118.541 7.31247C119.015 7.08704 119.358 6.76768 119.569 6.35439C119.785 5.9364 119.893 5.43857 119.893 4.8609C119.893 4.28324 119.785 3.77836 119.569 3.34629C119.353 2.91421 119.008 2.58076 118.534 2.34594C118.059 2.10641 117.432 1.98665 116.653 1.98665H113.581V14.8644H111.834ZM118.625 8.38327L122.176 14.8644H120.147L116.653 8.38327H118.625Z" fill="#0B0B08"/>
<path d="M129.115 15.0898C128.073 15.0898 127.173 14.8597 126.417 14.3995C125.666 13.9345 125.086 13.2864 124.677 12.4551C124.273 11.6191 124.071 10.647 124.071 9.5386C124.071 8.43023 124.273 7.45336 124.677 6.608C125.086 5.75793 125.654 5.09573 126.382 4.62138C127.115 4.14234 127.969 3.90282 128.946 3.90282C129.51 3.90282 130.066 3.99675 130.616 4.18461C131.165 4.37247 131.665 4.67774 132.116 5.10042C132.567 5.51841 132.926 6.0726 133.194 6.76298C133.462 7.45336 133.596 8.30343 133.596 9.31317V10.0176H125.255V8.58052H131.905C131.905 7.96998 131.783 7.42518 131.539 6.94614C131.299 6.4671 130.956 6.08903 130.51 5.81194C130.069 5.53485 129.547 5.3963 128.946 5.3963C128.284 5.3963 127.711 5.56068 127.227 5.88943C126.748 6.21349 126.38 6.63617 126.121 7.15748C125.863 7.67879 125.734 8.23768 125.734 8.83413V9.79221C125.734 10.6094 125.875 11.3021 126.156 11.8704C126.443 12.434 126.84 12.8637 127.347 13.1596C127.854 13.4508 128.444 13.5964 129.115 13.5964C129.552 13.5964 129.947 13.5353 130.299 13.4132C130.656 13.2864 130.963 13.0985 131.222 12.8496C131.48 12.596 131.68 12.2814 131.82 11.9056L133.427 12.3565C133.258 12.9013 132.973 13.3803 132.574 13.7936C132.175 14.2022 131.682 14.5216 131.095 14.7517C130.508 14.9771 129.848 15.0898 129.115 15.0898Z" fill="#0B0B08"/>
<path d="M144.186 6.4671L142.693 6.88978C142.599 6.64087 142.46 6.399 142.277 6.16418C142.099 5.92466 141.854 5.7274 141.544 5.57242C141.234 5.41744 140.838 5.33994 140.354 5.33994C139.692 5.33994 139.14 5.49258 138.698 5.79785C138.262 6.09843 138.043 6.48119 138.043 6.94614C138.043 7.35943 138.193 7.68584 138.494 7.92536C138.795 8.16488 139.264 8.36448 139.903 8.52416L141.509 8.91867C142.477 9.15349 143.198 9.51277 143.672 9.99651C144.146 10.4756 144.383 11.0931 144.383 11.8493C144.383 12.4692 144.205 13.0234 143.848 13.5118C143.496 14.0003 143.003 14.3854 142.369 14.6672C141.735 14.949 140.997 15.0898 140.157 15.0898C139.053 15.0898 138.139 14.8503 137.416 14.3713C136.693 13.8922 136.235 13.1925 136.042 12.272L137.62 11.8775C137.771 12.4598 138.055 12.8966 138.473 13.1878C138.896 13.479 139.447 13.6245 140.128 13.6245C140.903 13.6245 141.519 13.4602 141.974 13.1314C142.434 12.798 142.664 12.3988 142.664 11.9338C142.664 11.5581 142.533 11.2434 142.27 10.9898C142.007 10.7315 141.603 10.539 141.058 10.4121L139.255 9.98947C138.264 9.75464 137.536 9.39066 137.071 8.89753C136.611 8.39971 136.381 7.77742 136.381 7.03068C136.381 6.42014 136.552 5.88004 136.895 5.41039C137.242 4.94074 137.714 4.57207 138.311 4.30437C138.912 4.03667 139.593 3.90282 140.354 3.90282C141.425 3.90282 142.265 4.13764 142.876 4.60729C143.491 5.07694 143.928 5.69688 144.186 6.4671Z" fill="#0B0B08"/>
<path d="M151.82 15.0898C150.777 15.0898 149.878 14.8597 149.121 14.3995C148.37 13.9345 147.79 13.2864 147.381 12.4551C146.978 11.6191 146.776 10.647 146.776 9.5386C146.776 8.43023 146.978 7.45336 147.381 6.608C147.79 5.75793 148.358 5.09573 149.086 4.62138C149.819 4.14234 150.674 3.90282 151.651 3.90282C152.214 3.90282 152.771 3.99675 153.32 4.18461C153.87 4.37247 154.37 4.67774 154.821 5.10042C155.272 5.51841 155.631 6.0726 155.899 6.76298C156.166 7.45336 156.3 8.30343 156.3 9.31317V10.0176H147.959V8.58052H154.609C154.609 7.96998 154.487 7.42518 154.243 6.94614C154.003 6.4671 153.661 6.08903 153.214 5.81194C152.773 5.53485 152.252 5.3963 151.651 5.3963C150.988 5.3963 150.415 5.56068 149.932 5.88943C149.453 6.21349 149.084 6.63617 148.826 7.15748C148.567 7.67879 148.438 8.23768 148.438 8.83413V9.79221C148.438 10.6094 148.579 11.3021 148.861 11.8704C149.147 12.434 149.544 12.8637 150.051 13.1596C150.559 13.4508 151.148 13.5964 151.82 13.5964C152.256 13.5964 152.651 13.5353 153.003 13.4132C153.36 13.2864 153.668 13.0985 153.926 12.8496C154.184 12.596 154.384 12.2814 154.525 11.9056L156.131 12.3565C155.962 12.9013 155.678 13.3803 155.279 13.7936C154.879 14.2022 154.386 14.5216 153.799 14.7517C153.212 14.9771 152.552 15.0898 151.82 15.0898Z" fill="#0B0B08"/>
<path d="M162.41 15.118C161.724 15.118 161.102 14.9889 160.543 14.7306C159.984 14.4676 159.541 14.0895 159.212 13.5964C158.883 13.0985 158.719 12.4974 158.719 11.7929C158.719 11.173 158.841 10.6705 159.085 10.2853C159.329 9.89554 159.656 9.59026 160.064 9.36953C160.473 9.14879 160.924 8.98442 161.417 8.8764C161.915 8.76368 162.415 8.67445 162.917 8.6087C163.575 8.52416 164.108 8.46076 164.516 8.41849C164.93 8.37153 165.23 8.29403 165.418 8.18601C165.611 8.078 165.707 7.89014 165.707 7.62244V7.56608C165.707 6.871 165.517 6.3309 165.136 5.94579C164.761 5.56068 164.19 5.36812 163.425 5.36812C162.631 5.36812 162.009 5.54189 161.558 5.88943C161.107 6.23697 160.79 6.608 160.607 7.0025L159.029 6.43892C159.31 5.78141 159.686 5.2695 160.156 4.90317C160.63 4.53215 161.147 4.27384 161.706 4.12825C162.269 3.97796 162.823 3.90282 163.368 3.90282C163.716 3.90282 164.115 3.94509 164.566 4.02962C165.021 4.10946 165.46 4.27619 165.883 4.5298C166.311 4.78341 166.665 5.16617 166.947 5.67809C167.229 6.19001 167.37 6.8757 167.37 7.73515V14.8644H165.707V13.3991H165.622C165.51 13.6339 165.322 13.8852 165.059 14.1529C164.796 14.4206 164.446 14.6484 164.009 14.8362C163.572 15.0241 163.039 15.118 162.41 15.118ZM162.664 13.6245C163.321 13.6245 163.875 13.4954 164.326 13.2371C164.782 12.9788 165.125 12.6453 165.355 12.2367C165.59 11.8281 165.707 11.3984 165.707 10.9475V9.42589C165.637 9.51042 165.482 9.58792 165.242 9.65836C165.007 9.72411 164.735 9.78282 164.425 9.83448C164.12 9.88145 163.821 9.92371 163.53 9.96129C163.244 9.99416 163.011 10.0223 162.833 10.0458C162.401 10.1022 161.997 10.1938 161.621 10.3206C161.25 10.4427 160.949 10.6282 160.719 10.8771C160.494 11.1213 160.381 11.4548 160.381 11.8775C160.381 12.4551 160.595 12.8919 161.022 13.1878C161.454 13.479 162.002 13.6245 162.664 13.6245Z" fill="#0B0B08"/>
<path d="M170.801 14.8644V4.04371H172.407V5.67809H172.52C172.717 5.14269 173.074 4.70827 173.591 4.37482C174.107 4.04137 174.69 3.87464 175.338 3.87464C175.46 3.87464 175.612 3.87699 175.796 3.88169C175.979 3.88638 176.117 3.89343 176.211 3.90282V5.59355C176.155 5.57947 176.026 5.55833 175.824 5.53015C175.626 5.49728 175.418 5.48084 175.197 5.48084C174.671 5.48084 174.201 5.59121 173.788 5.81194C173.379 6.02798 173.055 6.32855 172.816 6.71367C172.581 7.09408 172.463 7.52851 172.463 8.01694V14.8644H170.801Z" fill="#0B0B08"/>
<path d="M182.645 15.0898C181.631 15.0898 180.757 14.8503 180.025 14.3713C179.292 13.8922 178.728 13.2324 178.334 12.3917C177.939 11.551 177.742 10.5906 177.742 9.51042C177.742 8.41145 177.944 7.44162 178.348 6.60095C178.757 5.75558 179.325 5.09573 180.053 4.62138C180.785 4.14234 181.64 3.90282 182.617 3.90282C183.378 3.90282 184.064 4.04371 184.674 4.3255C185.285 4.60729 185.785 5.0018 186.175 5.50902C186.565 6.01624 186.806 6.608 186.9 7.28429H185.238C185.111 6.79116 184.829 6.35439 184.392 5.97397C183.96 5.58886 183.378 5.3963 182.645 5.3963C181.997 5.3963 181.429 5.56538 180.94 5.90352C180.457 6.23697 180.079 6.70897 179.806 7.31951C179.539 7.92536 179.405 8.63688 179.405 9.45407C179.405 10.29 179.536 11.018 179.799 11.6379C180.067 12.2579 180.443 12.7393 180.926 13.0821C181.415 13.4249 181.988 13.5964 182.645 13.5964C183.077 13.5964 183.47 13.5212 183.822 13.3709C184.174 13.2206 184.472 13.0046 184.716 12.7228C184.961 12.441 185.134 12.1029 185.238 11.7084H186.9C186.806 12.3471 186.574 12.9224 186.203 13.4343C185.837 13.9416 185.35 14.3455 184.745 14.646C184.143 14.9419 183.444 15.0898 182.645 15.0898Z" fill="#0B0B08"/>
<path d="M191.39 8.35509V14.8644H189.728V0.436813H191.39V5.73445H191.531C191.785 5.17557 192.165 4.73175 192.672 4.403C193.184 4.06955 193.865 3.90282 194.715 3.90282C195.453 3.90282 196.098 4.05076 196.652 4.34664C197.207 4.63782 197.636 5.08633 197.942 5.69218C198.252 6.29333 198.407 7.05886 198.407 7.98876V14.8644H196.744V8.10148C196.744 7.24202 196.521 6.57747 196.075 6.10782C195.633 5.63347 195.02 5.3963 194.236 5.3963C193.691 5.3963 193.203 5.51137 192.771 5.74149C192.343 5.97162 192.005 6.30742 191.756 6.74889C191.512 7.19036 191.39 7.72576 191.39 8.35509Z" fill="#0B0B08"/>
<path d="M209.794 0.436813V14.8644H208.047V0.436813H209.794Z" fill="#0B0B08"/>
<path d="M215.131 8.35509V14.8644H213.468V4.04371H215.074V5.73445H215.215C215.469 5.18496 215.854 4.74349 216.37 4.41004C216.887 4.07189 217.554 3.90282 218.371 3.90282C219.104 3.90282 219.745 4.05311 220.294 4.35368C220.844 4.64956 221.271 5.10042 221.576 5.70627C221.882 6.30742 222.034 7.06825 222.034 7.98876V14.8644H220.372V8.10148C220.372 7.25141 220.151 6.58921 219.71 6.11486C219.268 5.63582 218.662 5.3963 217.892 5.3963C217.361 5.3963 216.887 5.51137 216.469 5.74149C216.056 5.97162 215.729 6.30742 215.49 6.74889C215.25 7.19036 215.131 7.72576 215.131 8.35509Z" fill="#0B0B08"/>
<path d="M230.175 4.04371V5.45266H224.567V4.04371H230.175ZM226.202 1.45125H227.864V11.7647C227.864 12.2344 227.932 12.5866 228.069 12.8214C228.21 13.0516 228.388 13.2066 228.604 13.2864C228.825 13.3615 229.057 13.3991 229.301 13.3991C229.485 13.3991 229.635 13.3897 229.752 13.3709C229.87 13.3475 229.964 13.3287 230.034 13.3146L230.372 14.8081C230.26 14.8503 230.102 14.8926 229.9 14.9349C229.698 14.9818 229.442 15.0053 229.132 15.0053C228.663 15.0053 228.203 14.9043 227.752 14.7024C227.305 14.5004 226.934 14.1928 226.639 13.7795C226.347 13.3662 226.202 12.8449 226.202 12.2156V1.45125Z" fill="#0B0B08"/>
<path d="M237.352 15.0898C236.375 15.0898 235.518 14.8574 234.781 14.3924C234.048 13.9275 233.475 13.277 233.062 12.441C232.654 11.6051 232.449 10.6282 232.449 9.51042C232.449 8.38327 232.654 7.39935 233.062 6.55868C233.475 5.71801 234.048 5.0652 234.781 4.60025C235.518 4.1353 236.375 3.90282 237.352 3.90282C238.329 3.90282 239.184 4.1353 239.917 4.60025C240.654 5.0652 241.227 5.71801 241.636 6.55868C242.049 7.39935 242.255 8.38327 242.255 9.51042C242.255 10.6282 242.049 11.6051 241.636 12.441C241.227 13.277 240.654 13.9275 239.917 14.3924C239.184 14.8574 238.329 15.0898 237.352 15.0898ZM237.352 13.5964C238.094 13.5964 238.705 13.4062 239.184 13.0257C239.663 12.6453 240.018 12.1452 240.248 11.5252C240.478 10.9053 240.593 10.2337 240.593 9.51042C240.593 8.78717 240.478 8.11322 240.248 7.48859C240.018 6.86395 239.663 6.35908 239.184 5.97397C238.705 5.58886 238.094 5.3963 237.352 5.3963C236.61 5.3963 236 5.58886 235.521 5.97397C235.042 6.35908 234.687 6.86395 234.457 7.48859C234.227 8.11322 234.112 8.78717 234.112 9.51042C234.112 10.2337 234.227 10.9053 234.457 11.5252C234.687 12.1452 235.042 12.6453 235.521 13.0257C236 13.4062 236.61 13.5964 237.352 13.5964Z" fill="#0B0B08"/>
<path d="M113.581 21.5146V35.9422H111.834V21.5146H113.581Z" fill="#0B0B08"/>
<path d="M118.918 29.4329V35.9422H117.255V25.1215H118.862V26.8123H119.003C119.256 26.2628 119.641 25.8213 120.158 25.4879C120.674 25.1497 121.341 24.9806 122.159 24.9806C122.891 24.9806 123.532 25.1309 124.082 25.4315C124.631 25.7274 125.059 26.1783 125.364 26.7841C125.669 27.3852 125.822 28.1461 125.822 29.0666V35.9422H124.159V29.1793C124.159 28.3292 123.939 27.667 123.497 27.1927C123.056 26.7137 122.45 26.4741 121.68 26.4741C121.149 26.4741 120.674 26.5892 120.256 26.8193C119.843 27.0494 119.517 27.3852 119.277 27.8267C119.038 28.2682 118.918 28.8036 118.918 29.4329Z" fill="#0B0B08"/>
<path d="M133.962 25.1215V26.5305H128.355V25.1215H133.962ZM129.989 22.5291H131.652V32.8426C131.652 33.3122 131.72 33.6644 131.856 33.8993C131.997 34.1294 132.175 34.2844 132.392 34.3642C132.612 34.4394 132.845 34.4769 133.089 34.4769C133.272 34.4769 133.422 34.4675 133.54 34.4488C133.657 34.4253 133.751 34.4065 133.822 34.3924L134.16 35.8859C134.047 35.9282 133.89 35.9704 133.688 36.0127C133.486 36.0597 133.23 36.0831 132.92 36.0831C132.45 36.0831 131.99 35.9822 131.539 35.7802C131.093 35.5783 130.722 35.2706 130.426 34.8574C130.135 34.4441 129.989 33.9228 129.989 33.2934V22.5291Z" fill="#0B0B08"/>
<path d="M141.281 36.1677C140.238 36.1677 139.339 35.9375 138.583 35.4773C137.831 35.0123 137.251 34.3642 136.843 33.5329C136.439 32.697 136.237 31.7248 136.237 30.6164C136.237 29.5081 136.439 28.5312 136.843 27.6858C137.251 26.8358 137.819 26.1736 138.547 25.6992C139.28 25.2202 140.135 24.9806 141.112 24.9806C141.675 24.9806 142.232 25.0746 142.781 25.2624C143.331 25.4503 143.831 25.7556 144.282 26.1783C144.733 26.5962 145.092 27.1504 145.36 27.8408C145.627 28.5312 145.761 29.3813 145.761 30.391V31.0955H137.42V29.6583H144.07C144.07 29.0478 143.948 28.503 143.704 28.024C143.465 27.5449 143.122 27.1669 142.676 26.8898C142.234 26.6127 141.713 26.4741 141.112 26.4741C140.449 26.4741 139.876 26.6385 139.393 26.9673C138.914 27.2913 138.545 27.714 138.287 28.2353C138.028 28.7566 137.899 29.3155 137.899 29.912V30.87C137.899 31.6872 138.04 32.38 138.322 32.9482C138.608 33.5118 139.005 33.9415 139.512 34.2374C140.02 34.5286 140.609 34.6742 141.281 34.6742C141.717 34.6742 142.112 34.6131 142.464 34.491C142.821 34.3642 143.129 34.1764 143.387 33.9275C143.645 33.6738 143.845 33.3592 143.986 32.9835L145.592 33.4343C145.423 33.9791 145.139 34.4582 144.74 34.8714C144.34 35.28 143.847 35.5994 143.26 35.8295C142.673 36.055 142.013 36.1677 141.281 36.1677Z" fill="#0B0B08"/>
<path d="M148.687 35.9422V25.1215H150.293V26.7559H150.406C150.603 26.2205 150.96 25.7861 151.477 25.4526C151.993 25.1192 152.576 24.9525 153.224 24.9525C153.346 24.9525 153.499 24.9548 153.682 24.9595C153.865 24.9642 154.003 24.9713 154.097 24.9806V26.6714C154.041 26.6573 153.912 26.6362 153.71 26.608C153.513 26.5751 153.304 26.5587 153.083 26.5587C152.557 26.5587 152.087 26.669 151.674 26.8898C151.265 27.1058 150.941 27.4064 150.702 27.7915C150.467 28.1719 150.35 28.6063 150.35 29.0948V35.9422H148.687Z" fill="#0B0B08"/>
<path d="M158.127 29.4329V35.9422H156.465V25.1215H158.071V26.8123H158.212C158.466 26.2628 158.851 25.8213 159.367 25.4879C159.884 25.1497 160.551 24.9806 161.368 24.9806C162.101 24.9806 162.742 25.1309 163.291 25.4315C163.841 25.7274 164.268 26.1783 164.573 26.7841C164.879 27.3852 165.031 28.1461 165.031 29.0666V35.9422H163.369V29.1793C163.369 28.3292 163.148 27.667 162.706 27.1927C162.265 26.7137 161.659 26.4741 160.889 26.4741C160.358 26.4741 159.884 26.5892 159.466 26.8193C159.053 27.0494 158.726 27.3852 158.487 27.8267C158.247 28.2682 158.127 28.8036 158.127 29.4329Z" fill="#0B0B08"/>
<path d="M173.003 36.1677C171.96 36.1677 171.061 35.9375 170.305 35.4773C169.553 35.0123 168.973 34.3642 168.565 33.5329C168.161 32.697 167.959 31.7248 167.959 30.6164C167.959 29.5081 168.161 28.5312 168.565 27.6858C168.973 26.8358 169.542 26.1736 170.269 25.6992C171.002 25.2202 171.857 24.9806 172.834 24.9806C173.397 24.9806 173.954 25.0746 174.503 25.2624C175.053 25.4503 175.553 25.7556 176.004 26.1783C176.455 26.5962 176.814 27.1504 177.082 27.8408C177.349 28.5312 177.483 29.3813 177.483 30.391V31.0955H169.142V29.6583H175.793C175.793 29.0478 175.67 28.503 175.426 28.024C175.187 27.5449 174.844 27.1669 174.398 26.8898C173.956 26.6127 173.435 26.4741 172.834 26.4741C172.172 26.4741 171.599 26.6385 171.115 26.9673C170.636 27.2913 170.267 27.714 170.009 28.2353C169.751 28.7566 169.621 29.3155 169.621 29.912V30.87C169.621 31.6872 169.762 32.38 170.044 32.9482C170.331 33.5118 170.727 33.9415 171.235 34.2374C171.742 34.5286 172.331 34.6742 173.003 34.6742C173.44 34.6742 173.834 34.6131 174.186 34.491C174.543 34.3642 174.851 34.1764 175.109 33.9275C175.368 33.6738 175.567 33.3592 175.708 32.9835L177.314 33.4343C177.145 33.9791 176.861 34.4582 176.462 34.8714C176.063 35.28 175.569 35.5994 174.982 35.8295C174.395 36.055 173.735 36.1677 173.003 36.1677Z" fill="#0B0B08"/>
<path d="M185.115 25.1215V26.5305H179.507V25.1215H185.115ZM181.142 22.5291H182.804V32.8426C182.804 33.3122 182.872 33.6644 183.009 33.8993C183.15 34.1294 183.328 34.2844 183.544 34.3642C183.765 34.4394 183.997 34.4769 184.241 34.4769C184.425 34.4769 184.575 34.4675 184.692 34.4488C184.81 34.4253 184.904 34.4065 184.974 34.3924L185.312 35.8859C185.2 35.9282 185.042 35.9704 184.84 36.0127C184.638 36.0597 184.382 36.0831 184.072 36.0831C183.603 36.0831 183.142 35.9822 182.692 35.7802C182.245 35.5783 181.874 35.2706 181.579 34.8574C181.287 34.4441 181.142 33.9228 181.142 33.2934V22.5291Z" fill="#0B0B08"/>
<path d="M202.104 25.1215C202.02 24.4077 201.677 23.8535 201.076 23.459C200.475 23.0645 199.737 22.8672 198.864 22.8672C198.225 22.8672 197.666 22.9706 197.187 23.1772C196.713 23.3838 196.342 23.668 196.074 24.0296C195.811 24.3912 195.68 24.8022 195.68 25.2624C195.68 25.6475 195.771 25.9787 195.954 26.2557C196.142 26.5281 196.382 26.7559 196.673 26.9391C196.964 27.1175 197.269 27.2655 197.589 27.3829C197.908 27.4956 198.202 27.5872 198.469 27.6576L199.935 28.0521C200.31 28.1508 200.728 28.287 201.189 28.4607C201.653 28.6345 202.097 28.8717 202.52 29.1723C202.947 29.4681 203.3 29.8486 203.577 30.3135C203.854 30.7785 203.992 31.3491 203.992 32.0254C203.992 32.805 203.788 33.5095 203.379 34.1388C202.976 34.7681 202.384 35.2683 201.604 35.6393C200.829 36.0103 199.888 36.1959 198.779 36.1959C197.746 36.1959 196.851 36.0291 196.095 35.6957C195.344 35.3622 194.752 34.8973 194.32 34.3008C193.893 33.7044 193.651 33.0116 193.594 32.2226H195.398C195.445 32.7674 195.628 33.2183 195.947 33.5752C196.271 33.9275 196.68 34.1905 197.173 34.3642C197.671 34.5333 198.206 34.6178 198.779 34.6178C199.446 34.6178 200.045 34.5098 200.576 34.2938C201.106 34.073 201.527 33.7678 201.837 33.378C202.147 32.9835 202.302 32.5232 202.302 31.9972C202.302 31.5182 202.168 31.1283 201.9 30.8278C201.632 30.5272 201.28 30.283 200.843 30.0951C200.407 29.9073 199.935 29.7429 199.427 29.602L197.652 29.0948C196.525 28.7707 195.633 28.3081 194.975 27.707C194.318 27.1058 193.989 26.3191 193.989 25.347C193.989 24.5392 194.207 23.8347 194.644 23.2336C195.085 22.6277 195.677 22.1581 196.419 21.8246C197.166 21.4865 198 21.3174 198.92 21.3174C199.85 21.3174 200.677 21.4841 201.4 21.8176C202.123 22.1463 202.696 22.5972 203.119 23.1702C203.546 23.7431 203.772 24.3936 203.795 25.1215H202.104Z" fill="#0B0B08"/>
<path d="M208.107 40C207.825 40 207.574 39.9765 207.353 39.9296C207.132 39.8873 206.98 39.845 206.895 39.8028L207.318 38.3375C207.722 38.4408 208.079 38.4783 208.389 38.4502C208.699 38.422 208.973 38.2834 209.213 38.0345C209.457 37.7903 209.68 37.3935 209.882 36.844L210.192 35.9986L206.191 25.1215H207.994L210.981 33.7443H211.094L214.081 25.1215H215.884L211.291 37.5203C211.085 38.0791 210.829 38.5417 210.523 38.9081C210.218 39.2791 209.863 39.5538 209.46 39.7323C209.06 39.9108 208.609 40 208.107 40Z" fill="#0B0B08"/>
<path d="M226.14 27.5449L224.647 27.9676C224.553 27.7187 224.414 27.4768 224.231 27.242C224.053 27.0025 223.808 26.8052 223.498 26.6502C223.188 26.4953 222.792 26.4178 222.308 26.4178C221.646 26.4178 221.094 26.5704 220.652 26.8757C220.216 27.1763 219.997 27.559 219.997 28.024C219.997 28.4373 220.147 28.7637 220.448 29.0032C220.749 29.2427 221.218 29.4423 221.857 29.602L223.463 29.9965C224.431 30.2313 225.152 30.5906 225.626 31.0743C226.1 31.5534 226.337 32.171 226.337 32.9271C226.337 33.547 226.159 34.1012 225.802 34.5897C225.45 35.0781 224.957 35.4632 224.323 35.745C223.689 36.0268 222.951 36.1677 222.111 36.1677C221.007 36.1677 220.093 35.9282 219.37 35.4491C218.647 34.9701 218.189 34.2703 217.996 33.3498L219.574 32.9553C219.725 33.5376 220.009 33.9744 220.427 34.2656C220.85 34.5568 221.401 34.7024 222.082 34.7024C222.857 34.7024 223.473 34.538 223.928 34.2092C224.388 33.8758 224.619 33.4766 224.619 33.0116C224.619 32.6359 224.487 32.3213 224.224 32.0676C223.961 31.8093 223.557 31.6168 223.012 31.49L221.209 31.0673C220.218 30.8325 219.49 30.4685 219.025 29.9754C218.565 29.4775 218.335 28.8552 218.335 28.1085C218.335 27.498 218.506 26.9579 218.849 26.4882C219.196 26.0186 219.668 25.6499 220.265 25.3822C220.866 25.1145 221.547 24.9806 222.308 24.9806C223.379 24.9806 224.219 25.2155 224.83 25.6851C225.445 26.1548 225.882 26.7747 226.14 27.5449Z" fill="#0B0B08"/>
<path d="M233.943 25.1215V26.5305H228.335V25.1215H233.943ZM229.969 22.5291H231.632V32.8426C231.632 33.3122 231.7 33.6644 231.836 33.8993C231.977 34.1294 232.156 34.2844 232.372 34.3642C232.592 34.4394 232.825 34.4769 233.069 34.4769C233.252 34.4769 233.403 34.4675 233.52 34.4488C233.637 34.4253 233.731 34.4065 233.802 34.3924L234.14 35.8859C234.027 35.9282 233.87 35.9704 233.668 36.0127C233.466 36.0597 233.21 36.0831 232.9 36.0831C232.43 36.0831 231.97 35.9822 231.519 35.7802C231.073 35.5783 230.702 35.2706 230.406 34.8574C230.115 34.4441 229.969 33.9228 229.969 33.2934V22.5291Z" fill="#0B0B08"/>
<path d="M241.261 36.1677C240.218 36.1677 239.319 35.9375 238.563 35.4773C237.811 35.0123 237.231 34.3642 236.823 33.5329C236.419 32.697 236.217 31.7248 236.217 30.6164C236.217 29.5081 236.419 28.5312 236.823 27.6858C237.231 26.8358 237.8 26.1736 238.528 25.6992C239.26 25.2202 240.115 24.9806 241.092 24.9806C241.655 24.9806 242.212 25.0746 242.761 25.2624C243.311 25.4503 243.811 25.7556 244.262 26.1783C244.713 26.5962 245.072 27.1504 245.34 27.8408C245.608 28.5312 245.741 29.3813 245.741 30.391V31.0955H237.4V29.6583H244.051C244.051 29.0478 243.929 28.503 243.684 28.024C243.445 27.5449 243.102 27.1669 242.656 26.8898C242.214 26.6127 241.693 26.4741 241.092 26.4741C240.43 26.4741 239.857 26.6385 239.373 26.9673C238.894 27.2913 238.525 27.714 238.267 28.2353C238.009 28.7566 237.879 29.3155 237.879 29.912V30.87C237.879 31.6872 238.02 32.38 238.302 32.9482C238.589 33.5118 238.985 33.9415 239.493 34.2374C240 34.5286 240.589 34.6742 241.261 34.6742C241.698 34.6742 242.092 34.6131 242.444 34.491C242.801 34.3642 243.109 34.1764 243.367 33.9275C243.626 33.6738 243.825 33.3592 243.966 32.9835L245.572 33.4343C245.403 33.9791 245.119 34.4582 244.72 34.8714C244.321 35.28 243.828 35.5994 243.24 35.8295C242.653 36.055 241.994 36.1677 241.261 36.1677Z" fill="#0B0B08"/>
<path d="M248.667 35.9422V25.1215H250.273V26.8123H250.414C250.64 26.2346 251.004 25.7861 251.506 25.4667C252.009 25.1427 252.612 24.9806 253.317 24.9806C254.031 24.9806 254.625 25.1427 255.099 25.4667C255.578 25.7861 255.951 26.2346 256.219 26.8123H256.332C256.609 26.2534 257.025 25.8096 257.579 25.4808C258.133 25.1474 258.798 24.9806 259.572 24.9806C260.54 24.9806 261.331 25.2836 261.946 25.8894C262.562 26.4906 262.869 27.4275 262.869 28.7003V35.9422H261.207V28.7003C261.207 27.9019 260.988 27.3312 260.552 26.9884C260.115 26.6456 259.601 26.4741 259.009 26.4741C258.248 26.4741 257.659 26.7043 257.241 27.1645C256.823 27.6201 256.614 28.1977 256.614 28.8975V35.9422H254.923V28.5312C254.923 27.916 254.723 27.4205 254.324 27.0448C253.925 26.6643 253.411 26.4741 252.781 26.4741C252.349 26.4741 251.945 26.5892 251.57 26.8193C251.199 27.0494 250.898 27.3688 250.668 27.7774C250.442 28.1813 250.33 28.6486 250.33 29.1793V35.9422H248.667Z" fill="#0B0B08"/>
<path d="M273.971 27.5449L272.477 27.9676C272.383 27.7187 272.245 27.4768 272.061 27.242C271.883 27.0025 271.639 26.8052 271.329 26.6502C271.019 26.4953 270.622 26.4178 270.138 26.4178C269.476 26.4178 268.924 26.5704 268.483 26.8757C268.046 27.1763 267.828 27.559 267.828 28.024C267.828 28.4373 267.978 28.7637 268.278 29.0032C268.579 29.2427 269.049 29.4423 269.687 29.602L271.294 29.9965C272.261 30.2313 272.982 30.5906 273.456 31.0743C273.931 31.5534 274.168 32.171 274.168 32.9271C274.168 33.547 273.989 34.1012 273.632 34.5897C273.28 35.0781 272.787 35.4632 272.153 35.745C271.519 36.0268 270.782 36.1677 269.941 36.1677C268.837 36.1677 267.924 35.9282 267.201 35.4491C266.477 34.9701 266.019 34.2703 265.827 33.3498L267.405 32.9553C267.555 33.5376 267.839 33.9744 268.257 34.2656C268.68 34.5568 269.232 34.7024 269.913 34.7024C270.688 34.7024 271.303 34.538 271.759 34.2092C272.219 33.8758 272.449 33.4766 272.449 33.0116C272.449 32.6359 272.317 32.3213 272.054 32.0676C271.791 31.8093 271.388 31.6168 270.843 31.49L269.039 31.0673C268.048 30.8325 267.32 30.4685 266.855 29.9754C266.395 29.4775 266.165 28.8552 266.165 28.1085C266.165 27.498 266.336 26.9579 266.679 26.4882C267.027 26.0186 267.499 25.6499 268.095 25.3822C268.696 25.1145 269.377 24.9806 270.138 24.9806C271.209 24.9806 272.05 25.2155 272.66 25.6851C273.276 26.1548 273.712 26.7747 273.971 27.5449Z" fill="#0B0B08"/>
<path d="M275.911 24C275.911 23.7967 275.961 23.6111 276.061 23.4432C276.16 23.2753 276.294 23.142 276.46 23.0436C276.628 22.9438 276.814 22.8939 277.017 22.8939C277.194 22.8939 277.357 22.9324 277.508 23.0095C277.658 23.0852 277.782 23.1894 277.881 23.322C277.979 23.4545 278.039 23.6035 278.061 23.7689H277.568C277.545 23.6515 277.481 23.5556 277.375 23.4811C277.27 23.4053 277.151 23.3674 277.017 23.3674C276.901 23.3674 276.795 23.3958 276.699 23.4527C276.603 23.5095 276.527 23.5859 276.47 23.6818C276.413 23.7765 276.384 23.8826 276.384 24C276.384 24.1162 276.413 24.2222 276.47 24.3182C276.527 24.4141 276.603 24.4905 276.699 24.5473C276.795 24.6042 276.901 24.6326 277.017 24.6326C277.151 24.6326 277.265 24.5953 277.36 24.5208C277.455 24.4451 277.514 24.3485 277.538 24.2311H278.03C278.009 24.3965 277.951 24.5455 277.858 24.678C277.765 24.8106 277.645 24.9154 277.5 24.9924C277.355 25.0682 277.194 25.1061 277.017 25.1061C276.814 25.1061 276.628 25.0568 276.46 24.9583C276.294 24.8586 276.16 24.7247 276.061 24.5568C275.961 24.3889 275.911 24.2033 275.911 24ZM277 26C276.725 26 276.466 25.9482 276.223 25.8447C275.982 25.7412 275.77 25.5979 275.585 25.4148C275.402 25.2304 275.258 25.0177 275.153 24.7765C275.05 24.5354 274.999 24.2765 275 24C275.001 23.7235 275.054 23.4646 275.157 23.2235C275.262 22.9823 275.406 22.7702 275.589 22.5871C275.772 22.4028 275.984 22.2588 276.225 22.1553C276.467 22.0518 276.725 22 277 22C277.277 22 277.535 22.0518 277.777 22.1553C278.019 22.2588 278.231 22.4028 278.413 22.5871C278.596 22.7702 278.739 22.9823 278.843 23.2235C278.946 23.4646 278.999 23.7235 279 24C279.001 24.2765 278.95 24.5354 278.847 24.7765C278.743 25.0177 278.6 25.2304 278.417 25.4148C278.234 25.5979 278.021 25.7412 277.778 25.8447C277.536 25.9482 277.277 26 277 26ZM277 25.4962C277.207 25.4962 277.402 25.4577 277.583 25.3807C277.765 25.3037 277.924 25.197 278.061 25.0606C278.198 24.923 278.306 24.7639 278.383 24.5833C278.46 24.4015 278.497 24.2077 278.496 24.0019C278.496 23.7948 278.457 23.6004 278.379 23.4186C278.302 23.2367 278.194 23.0777 278.057 22.9413C277.92 22.8037 277.762 22.6963 277.581 22.6193C277.401 22.5423 277.207 22.5038 277 22.5038C276.794 22.5038 276.601 22.5423 276.42 22.6193C276.24 22.6963 276.081 22.8037 275.943 22.9413C275.807 23.0789 275.7 23.2386 275.621 23.4205C275.543 23.601 275.504 23.7948 275.504 24.0019C275.503 24.2064 275.54 24.3996 275.617 24.5814C275.696 24.762 275.803 24.9211 275.939 25.0587C276.077 25.1951 276.236 25.3024 276.417 25.3807C276.598 25.4577 276.793 25.4962 277 25.4962Z" fill="#0B0B08"/>
<path d="M0 36.5621V0.493132H14.8996C17.6001 0.493132 19.9307 0.980393 21.8915 1.95491C23.864 2.91769 25.3845 4.30316 26.453 6.1113C27.5214 7.90771 28.0556 10.0387 28.0556 12.5044C28.0556 15.0053 27.5097 17.1304 26.4177 18.8799C25.3258 20.6176 23.776 21.9443 21.7682 22.8601C19.7605 23.7642 17.3829 24.2163 14.6354 24.2163H5.2131V17.3476H13.0151C14.3302 17.3476 15.428 17.1774 16.3085 16.8369C17.2009 16.4847 17.876 15.9563 18.3339 15.2518C18.7918 14.5356 19.0208 13.6198 19.0208 12.5044C19.0208 11.389 18.7918 10.4673 18.3339 9.73934C17.876 8.99964 17.2009 8.4478 16.3085 8.08383C15.4162 7.70811 14.3184 7.52025 13.0151 7.52025H8.71785V36.5621H0ZM20.3064 20.0775L29.2885 36.5621H19.7781L10.9722 20.0775H20.3064Z" fill="#0B0B08"/>
<path d="M42.547 0.493132V36.5621H33.8291V0.493132H42.547Z" fill="#0B0B08"/>
<path d="M57.2337 0.493132V36.5621H48.5158V0.493132H57.2337Z" fill="#0B0B08"/>
<path d="M82.2028 11.3068C82.0854 10.0153 81.5629 9.01138 80.6354 8.29517C79.7196 7.56722 78.4104 7.20324 76.7079 7.20324C75.5808 7.20324 74.6415 7.35 73.8901 7.64353C73.1386 7.93706 72.575 8.34213 72.1993 8.85875C71.8236 9.36362 71.6299 9.94481 71.6181 10.6023C71.5946 11.1424 71.7003 11.6179 71.9351 12.0289C72.1817 12.4398 72.5339 12.8038 72.9918 13.1208C73.4615 13.4261 74.0251 13.6961 74.6826 13.931C75.3401 14.1658 76.0798 14.3712 76.9017 14.5474L80.0014 15.2518C81.786 15.6393 83.3593 16.1559 84.7213 16.8017C86.095 17.4474 87.2457 18.2165 88.1732 19.1088C89.1125 20.0012 89.8229 21.0285 90.3043 22.1909C90.7857 23.3533 91.0322 24.6566 91.044 26.1007C91.0322 28.3785 90.4569 30.3334 89.318 31.9655C88.1791 33.5975 86.5412 34.8479 84.4043 35.7168C82.2791 36.5856 79.7137 37.0201 76.7079 37.0201C73.6905 37.0201 71.0604 36.568 68.8178 35.6639C66.5753 34.7599 64.8317 33.3861 63.5871 31.5428C62.3426 29.6994 61.7027 27.3688 61.6674 24.5509H70.0155C70.0859 25.7133 70.397 26.6819 70.9489 27.4568C71.5007 28.2318 72.258 28.8188 73.2208 29.218C74.1953 29.6172 75.3225 29.8168 76.6023 29.8168C77.7764 29.8168 78.7744 29.6583 79.5963 29.3413C80.4299 29.0243 81.0698 28.584 81.516 28.0204C81.9621 27.4568 82.1911 26.8111 82.2028 26.0831C82.1911 25.4021 81.9798 24.8209 81.5688 24.3395C81.1579 23.8464 80.5238 23.4237 79.6667 23.0715C78.8214 22.7075 77.7412 22.3729 76.4262 22.0676L72.6572 21.187C69.5341 20.4708 67.0743 19.3143 65.2779 17.7175C63.4815 16.1089 62.5891 13.9368 62.6009 11.2011C62.5891 8.97029 63.1879 7.01538 64.3973 5.33638C65.6066 3.65739 67.2797 2.34824 69.4166 1.40895C71.5535 0.46965 73.9899 0 76.7256 0C79.52 0 81.9445 0.475519 83.9992 1.42656C86.0657 2.36586 87.6684 3.68674 88.8073 5.38922C89.9462 7.09169 90.5274 9.06422 90.5508 11.3068H82.2028Z" fill="#0B0B08"/>
</svg>
