<?xml version="1.0" encoding="UTF-8" standalone="no"?>
<!-- Created with Inkscape (http://www.inkscape.org/) -->

<svg
   width="24.088722mm"
   height="9.7949009mm"
   viewBox="0 0 24.088722 9.7949009"
   version="1.1"
   id="svg4775"
   inkscape:version="1.2.2 (b0a8486541, 2022-12-01)"
   sodipodi:docname="RIISLogo.svg"
   xmlns:inkscape="http://www.inkscape.org/namespaces/inkscape"
   xmlns:sodipodi="http://sodipodi.sourceforge.net/DTD/sodipodi-0.dtd"
   xmlns="http://www.w3.org/2000/svg"
   xmlns:svg="http://www.w3.org/2000/svg">
  <sodipodi:namedview
     id="namedview4777"
     pagecolor="#ffffff"
     bordercolor="#000000"
     borderopacity="0.25"
     inkscape:showpageshadow="2"
     inkscape:pageopacity="0.0"
     inkscape:pagecheckerboard="0"
     inkscape:deskcolor="#d1d1d1"
     inkscape:document-units="mm"
     showgrid="false"
     inkscape:zoom="1.2015352"
     inkscape:cx="283.38746"
     inkscape:cy="171.0312"
     inkscape:window-width="1854"
     inkscape:window-height="1011"
     inkscape:window-x="66"
     inkscape:window-y="32"
     inkscape:window-maximized="1"
     inkscape:current-layer="layer1" />
  <defs
     id="defs4772" />
  <g
     inkscape:label="Layer 1"
     inkscape:groupmode="layer"
     id="layer1"
     transform="translate(-1.0067065,-54.714188)">
    <path
       d="m 1.0067065,64.38791 v -9.543247 h 3.9421858 c 0.7145073,0 1.3311452,0.128921 1.8499402,0.386762 0.5218906,0.254735 0.9241895,0.621307 1.2068968,1.099711 0.2826809,0.4753 0.4240213,1.039125 0.4240213,1.691508 0,0.661696 -0.1444361,1.223962 -0.4333611,1.686851 -0.2888985,0.459766 -0.6989497,0.810789 -1.2301802,1.053094 -0.5312039,0.23921 -1.1602772,0.358828 -1.8872199,0.358828 H 2.3860059 V 59.304074 H 4.450285 c 0.3479535,0 0.6384131,-0.04503 0.8713787,-0.135123 0.2361142,-0.09319 0.4147344,-0.232992 0.5358871,-0.419391 0.1211527,-0.189495 0.1817423,-0.4318 0.1817423,-0.726916 0,-0.295116 -0.06059,-0.538983 -0.1817423,-0.731589 C 5.7363981,57.095343 5.5577779,56.949335 5.3216637,56.853035 5.085576,56.753625 4.7951165,56.703921 4.450285,56.703921 H 3.3133043 v 7.683989 z m 5.3727349,-4.36155 2.376514,4.36155 H 6.2396621 L 3.9097677,60.02636 Z"
       fill="#f2f2f2"
       id="path171"
       style="stroke-width:0.264583" />
    <path
       d="M 12.263933,54.844663 V 64.38791 H 9.9573224 v -9.543247 z"
       fill="#f2f2f2"
       id="path173"
       style="stroke-width:0.264583" />
    <path
       d="M 16.149789,54.844663 V 64.38791 H 13.843178 V 54.844663 Z"
       fill="#f2f2f2"
       id="path175"
       style="stroke-width:0.264583" />
    <path
       d="m 22.756197,57.705779 c -0.03106,-0.34171 -0.169307,-0.60733 -0.414708,-0.796827 -0.242305,-0.192604 -0.588698,-0.288907 -1.039151,-0.288907 -0.298212,0 -0.546735,0.03883 -0.745543,0.116494 -0.198834,0.07766 -0.347953,0.184838 -0.447357,0.321527 -0.0994,0.13358 -0.150654,0.287353 -0.153776,0.461314 -0.0062,0.142901 0.02175,0.268711 0.08387,0.377454 0.06525,0.108718 0.158432,0.205026 0.279585,0.288899 0.124275,0.08078 0.273394,0.152215 0.447358,0.214365 0.173963,0.06213 0.369675,0.11647 0.587136,0.16309 l 0.820129,0.186372 c 0.472176,0.102526 0.888445,0.23921 1.248807,0.410078 0.363458,0.170841 0.667914,0.374332 0.913315,0.61042 0.248523,0.236114 0.436483,0.507921 0.563854,0.815472 0.12737,0.307552 0.19259,0.652383 0.195712,1.034468 -0.0031,0.602668 -0.155337,1.119902 -0.456671,1.551728 -0.301334,0.4318 -0.734695,0.762635 -1.300083,0.992532 -0.562292,0.22987 -1.241054,0.344831 -2.036339,0.344831 -0.798354,0 -1.494234,-0.119618 -2.087589,-0.358828 -0.593328,-0.239183 -1.054655,-0.602667 -1.383956,-1.090374 -0.329274,-0.487733 -0.498581,-1.104371 -0.50792,-1.84994 h 2.208741 c 0.01865,0.307552 0.100965,0.563827 0.246989,0.768853 0.145997,0.205052 0.346366,0.360362 0.601107,0.465984 0.257836,0.105621 0.556074,0.158432 0.894688,0.158432 0.310647,0 0.574702,-0.04194 0.792163,-0.125809 0.220556,-0.08387 0.389863,-0.200369 0.50792,-0.349488 0.118031,-0.149119 0.17862,-0.319961 0.181716,-0.512578 -0.0031,-0.180181 -0.059,-0.333957 -0.167746,-0.461327 -0.108717,-0.130466 -0.276489,-0.242305 -0.503264,-0.335492 -0.223652,-0.09631 -0.509455,-0.184838 -0.857382,-0.265615 L 20.23059,60.319915 c -0.82632,-0.189495 -1.477142,-0.495485 -1.952439,-0.917972 -0.475298,-0.425609 -0.711412,-1.00031 -0.70829,-1.724131 -0.0031,-0.590235 0.15531,-1.107471 0.475298,-1.551707 0.31996,-0.444233 0.762635,-0.790612 1.328023,-1.039132 0.565414,-0.248523 1.210019,-0.372785 1.933839,-0.372785 0.739352,0 1.380834,0.125815 1.924474,0.377444 0.546761,0.248523 0.970809,0.598006 1.272143,1.048454 0.301334,0.450445 0.455109,0.972344 0.461301,1.565693 z"
       fill="#f2f2f2"
       id="path177"
       style="stroke-width:0.264583" />
  </g>
</svg>
